<svg width="656" height="392" viewBox="0 0 656 392" fill="none" xmlns="http://www.w3.org/2000/svg">
<path d="M525.247 287.803C523.699 276.469 523.29 264.987 524.027 253.557L525.247 234.641C518.527 249.176 520.046 268.305 525.247 287.803Z" fill="#CFCFCF"/>
<path d="M530.486 290.967C529.741 284.204 529.545 277.383 529.9 270.583L530.486 259.323C527.253 267.975 527.984 279.361 530.486 290.967Z" fill="#CFCFCF"/>
<path d="M553.777 304.892V311.22C553.775 311.723 553.59 312.205 553.263 312.56C552.936 312.916 552.493 313.116 552.031 313.119H549.12C549.043 313.119 548.967 313.135 548.897 313.167C548.826 313.198 548.762 313.245 548.707 313.304C548.653 313.363 548.61 313.433 548.581 313.509C548.552 313.586 548.537 313.669 548.537 313.752V365.648C548.535 366.15 548.35 366.632 548.023 366.987C547.696 367.343 547.253 367.544 546.791 367.546H511.276C510.813 367.546 510.369 367.346 510.042 366.99C509.714 366.634 509.53 366.151 509.53 365.648V313.752C509.529 313.584 509.468 313.424 509.359 313.305C509.25 313.186 509.102 313.12 508.948 313.119H505.454C504.991 313.119 504.547 312.919 504.22 312.563C503.892 312.207 503.708 311.724 503.708 311.22V304.892C503.707 304.642 503.752 304.395 503.84 304.165C503.928 303.934 504.056 303.725 504.219 303.548C504.381 303.372 504.574 303.232 504.786 303.137C504.998 303.042 505.225 302.993 505.454 302.993H552.031C552.494 302.995 552.937 303.195 553.264 303.551C553.591 303.907 553.776 304.389 553.777 304.892Z" fill="#B1B1B1"/>
<path d="M548.59 314.448H509.582V316.347H548.59V314.448Z" fill="#222222"/>
<path d="M548.537 342.386C535.485 348.258 522.289 348.323 508.948 342.386V329.01C521.792 324.321 535.693 324.321 548.537 329.01V342.386Z" fill="#BB86FC"/>
<path d="M329.894 137.871C359.033 137.871 382.655 112.193 382.655 80.5188C382.655 48.8441 359.033 23.1667 329.894 23.1667C300.756 23.1667 277.134 48.8441 277.134 80.5188C277.134 112.193 300.756 137.871 329.894 137.871Z" fill="#FEB8B8"/>
<path d="M379.173 31.0402C371.285 17.1164 358.938 6.85643 344.508 2.23538L338.031 7.37342V0.701827C334.565 0.125261 331.058 -0.0968486 327.554 0.038419L321.966 5.5347V0.495052C313.692 1.61269 305.721 4.58171 298.555 9.21491C291.39 13.8481 285.185 20.045 280.332 27.4147C268.196 46.4322 266.148 72.8897 278.084 92.0597C281.36 81.1136 285.337 70.8431 288.615 59.8981C291.19 60.2797 293.8 60.2934 296.379 59.939L300.365 49.8277L301.478 59.5111C313.835 58.3413 332.162 55.7718 343.875 53.4178L342.736 45.9888L349.551 52.1618C353.139 51.264 355.27 50.4491 355.094 49.8267C363.806 65.0937 374.468 74.8446 383.179 90.1116C386.487 68.5842 390.296 50.6846 379.173 31.0402Z" fill="#2F2E41"/>
<path d="M443.367 228.001C441.553 216.137 439.681 204.044 434.609 193.355C431.274 186.354 425.982 179.683 418.848 178.298C417.442 178.162 416.061 177.815 414.744 177.266C412.654 176.171 384.562 158.739 380.097 155.703C376.263 153.097 370.212 148.27 367.16 148.27C364.09 148.197 352.319 151.175 306.375 147.271C306.375 147.271 293.754 152.679 283.988 159.236C283.84 159.13 236.302 186.88 234.516 186.807C231.134 186.652 227.99 189.006 226.051 191.97C224.113 194.934 223.203 198.604 222.251 202.152C232.634 227.287 242.134 252.454 252.518 277.59C253.004 278.536 253.263 279.601 253.269 280.685C253.06 281.811 252.619 282.869 251.977 283.781C246.885 292.673 247.047 303.857 247.603 314.308C248.16 324.758 248.848 335.797 244.552 345.165C243.383 347.736 241.864 350.09 240.752 352.662C238.149 358.487 237.208 377.116 238.729 383.374L429.206 389.306C425.111 377.068 443.367 228.001 443.367 228.001Z" fill="#03DAC5"/>
<path d="M205.787 278.704C205.406 281.693 205.368 284.721 205.673 287.72L208.403 330.339C208.659 334.356 208.911 338.362 209.258 342.369C209.913 350.146 210.892 357.86 212.106 365.563C212.133 366.657 212.559 367.694 213.289 368.447C214.019 369.2 214.994 369.607 216.001 369.58C228.018 372.344 240.435 372.233 252.699 371.48C271.415 370.345 319.296 368.197 322.221 364.066C325.146 359.935 323.442 353.254 319.627 349.913C315.813 346.573 252.627 338.43 252.627 338.43C253.244 333.112 255.107 328.103 256.874 323.053C260.047 314.098 263.011 304.847 263.068 295.254C263.125 285.66 259.8 275.573 252.57 270.076C246.623 265.564 238.966 264.727 231.719 264.913C226.446 265.078 217.335 263.704 212.519 265.946C208.708 267.77 206.499 274.647 205.787 278.704Z" fill="#FBBEBE"/>
<path d="M221.702 202.917C220.776 203.97 220.059 205.218 219.593 206.584C211.914 225.396 207.378 245.545 206.198 266.086C206.219 267.088 206.007 268.079 205.581 268.968C205.161 269.559 204.694 270.108 204.185 270.609C203.74 271.182 203.404 271.843 203.196 272.557C202.987 273.27 202.909 274.021 202.968 274.767C203.026 275.513 203.219 276.239 203.535 276.904C203.851 277.569 204.285 278.16 204.812 278.643C204.898 278.722 204.987 278.798 205.078 278.871C206.645 275.664 210.397 274.616 213.732 274.338C229.702 272.964 245.301 281.04 261.318 280.431C260.188 276.186 258.562 272.108 257.641 267.812C253.565 248.738 263.73 227.972 257.498 209.6C256.253 205.923 254.173 202.309 250.896 200.698C249.539 200.103 248.119 199.694 246.669 199.482C242.621 198.687 234.565 195.289 230.652 196.652C229.207 197.159 228.638 198.635 227.441 199.527C225.622 200.79 223.209 201.254 221.702 202.917Z" fill="#03DAC5"/>
<path d="M443.481 265.946C438.665 263.704 429.554 265.078 424.281 264.913C417.034 264.727 409.377 265.564 403.43 270.076C396.2 275.573 392.875 285.66 392.932 295.254C392.989 304.847 395.953 314.097 399.126 323.053C400.893 328.103 402.755 333.112 403.373 338.43C403.373 338.43 340.187 346.573 336.372 349.913C332.558 353.254 330.853 359.935 333.779 364.066C336.704 368.197 427.982 372.344 439.999 369.58C441.005 369.607 441.981 369.2 442.711 368.447C443.441 367.694 443.867 366.657 443.894 365.563C445.108 357.86 446.087 350.146 446.742 342.369C447.089 338.362 447.341 334.356 447.597 330.339L450.327 287.72C450.632 284.721 450.594 281.693 450.213 278.704C449.502 274.647 447.292 267.77 443.481 265.946Z" fill="#FBBEBE"/>
<path d="M428.559 199.527C427.362 198.635 426.793 197.159 425.348 196.652C421.435 195.289 413.379 198.687 409.331 199.482C407.881 199.695 406.461 200.103 405.104 200.698C401.827 202.309 399.747 205.923 398.502 209.6C392.27 227.972 402.435 248.738 398.359 267.812C397.438 272.108 395.813 276.186 394.682 280.431C410.699 281.04 426.298 272.964 442.268 274.338C445.603 274.616 449.355 275.664 450.922 278.871C451.013 278.798 451.102 278.722 451.188 278.643C451.715 278.16 452.149 277.569 452.465 276.904C452.781 276.239 452.974 275.513 453.032 274.767C453.091 274.021 453.013 273.27 452.804 272.557C452.596 271.843 452.26 271.182 451.816 270.609C451.306 270.108 450.839 269.559 450.419 268.968C449.993 268.079 449.781 267.088 449.802 266.086C448.622 245.545 444.086 225.396 436.407 206.584C435.941 205.218 435.224 203.97 434.298 202.917C432.791 201.254 430.378 200.79 428.559 199.527Z" fill="#03DAC5"/>
<path d="M314.269 371.615C322.133 371.615 328.509 364.685 328.509 356.136C328.509 347.587 322.133 340.657 314.269 340.657C306.404 340.657 300.029 347.587 300.029 356.136C300.029 364.685 306.404 371.615 314.269 371.615Z" fill="#FBBEBE"/>
<path d="M345.8 371.615C353.665 371.615 360.04 364.685 360.04 356.136C360.04 347.587 353.665 340.657 345.8 340.657C337.935 340.657 331.56 347.587 331.56 356.136C331.56 364.685 337.935 371.615 345.8 371.615Z" fill="#FBBEBE"/>
<path d="M433.7 391.016H238.064C235.78 391.014 233.59 390.026 231.975 388.271C230.36 386.515 229.451 384.135 229.448 381.652V252.635C229.451 250.152 230.36 247.772 231.975 246.017C233.59 244.261 235.78 243.273 238.064 243.271H433.7C435.984 243.273 438.174 244.261 439.789 246.017C441.404 247.772 442.313 250.152 442.316 252.635V381.652C442.313 384.135 441.404 386.515 439.789 388.271C438.174 390.026 435.984 391.014 433.7 391.016Z" fill="#3F3D56"/>
<path d="M656 364.993H0V386.906H38.8017V392H617.213V386.906H656V364.993Z" fill="#7E7E7E"/>
<path d="M281.378 101.895C272.9 101.895 266.028 93.8177 266.028 83.8537V74.833C266.028 64.8691 272.9 56.7917 281.378 56.7917L281.378 101.895Z" fill="#03DAC5"/>
<path d="M379.352 56.7917C387.829 56.7917 394.702 64.8691 394.702 74.833V83.8537C394.702 93.8177 387.829 101.895 379.352 101.895V56.7917Z" fill="#03DAC5"/>
<path d="M387.395 76.2506H384.96C384.96 39.948 359.831 10.4135 328.944 10.4135C298.057 10.4135 272.928 39.948 272.928 76.2506H270.493C270.493 38.3695 296.714 7.55103 328.944 7.55103C361.174 7.55105 387.395 38.3695 387.395 76.2506Z" fill="#03DAC5"/>
<path d="M336.336 301.828C336.893 301.305 337.318 300.698 337.586 300.041C337.854 299.384 337.96 298.69 337.898 298C336.188 298.112 334.6 298.767 333.477 299.824C332.939 300.33 332.531 300.919 332.278 301.556C332.025 302.193 331.931 302.865 332.003 303.532C332.837 303.537 333.662 303.387 334.413 303.091C335.165 302.796 335.823 302.363 336.336 301.828ZM340.05 310.755C340.06 309.836 340.357 308.933 340.914 308.134C341.471 307.334 342.27 306.662 343.234 306.183C342.625 305.47 341.821 304.881 340.885 304.465C339.948 304.048 338.906 303.815 337.839 303.784C335.54 303.592 333.418 304.876 332.194 304.876C330.971 304.876 329.247 303.808 327.331 303.832C326.078 303.865 324.857 304.163 323.788 304.695C322.719 305.227 321.837 305.975 321.229 306.867C318.635 310.539 320.566 315.999 323.16 318.963C324.339 320.414 325.812 322.058 327.758 321.998C329.703 321.938 330.337 321.014 332.592 321.014C334.847 321.014 335.54 321.998 337.456 321.962C339.372 321.926 340.728 320.474 341.966 319.023C342.843 317.968 343.528 316.817 344 315.603C342.832 315.197 341.835 314.522 341.133 313.66C340.431 312.799 340.055 311.789 340.05 310.755Z" fill="#03DAC5"/>
</svg>
