<svg width="32" height="32" viewBox="0 0 32 32" fill="none" xmlns="http://www.w3.org/2000/svg">
<path d="M15.0303 4.79207C15.595 5.25176 16.405 5.25176 16.9697 4.79207V4.79207C16.4341 4.35614 15.5659 4.35614 15.0303 4.79207V4.79207ZM16.9697 18.2777C16.4049 17.818 15.5951 17.818 15.0303 18.2777V18.2777C15.5659 18.7136 16.4341 18.7136 16.9697 18.2777V18.2777ZM11.3731 7.76881C10.8375 8.20474 10.8375 8.91154 11.3731 9.34747C11.9087 9.7834 12.777 9.7834 13.3125 9.34747L11.3731 7.76881ZM18.6875 9.34747C19.223 9.7834 20.0912 9.7834 20.6268 9.34747C21.1624 8.91154 21.1624 8.20474 20.6268 7.76881L18.6875 9.34747ZM13.3125 13.7223C12.777 13.2864 11.9087 13.2864 11.3731 13.7223C10.8375 14.1583 10.8375 14.865 11.3731 15.3009L13.3125 13.7223ZM20.6268 15.3009C21.1624 14.865 21.1624 14.1583 20.6268 13.7223C20.0912 13.2864 19.223 13.2864 18.6875 13.7223L20.6268 15.3009ZM0 13.0233V18.9767H2.74286V13.0233H0ZM32 18.9767V13.0233H29.2571V18.9767H32ZM16 5.58139C15.2426 5.58139 14.6286 6.1954 14.6286 6.95282V16.1169C14.6286 16.8744 15.2426 17.4884 16 17.4884V17.4884C16.7574 17.4884 17.3714 16.8744 17.3714 16.1169V6.95282C17.3714 6.1954 16.7574 5.58139 16 5.58139V5.58139ZM15.0303 4.79207L11.3731 7.76881L13.3125 9.34747L15.0641 7.9218C16.0473 7.12148 16.0474 5.61994 15.0641 4.81959L15.0303 4.79207ZM16.9359 4.81959C15.9526 5.61994 15.9527 7.12148 16.9359 7.9218L18.6875 9.34747L20.6268 7.76881L16.9697 4.79207L16.9359 4.81959ZM15.064 18.2502C16.0473 17.4499 16.0473 15.9483 15.064 15.148L13.3125 13.7223L11.3731 15.3009L15.0303 18.2777L15.064 18.2502ZM16.9697 18.2777L20.6268 15.3009L18.6875 13.7223L16.936 15.148C15.9527 15.9483 15.9527 17.4499 16.936 18.2502L16.9697 18.2777ZM32 13.0233C32 5.83071 24.8366 0 16 0V2.23256C23.3218 2.23256 29.2571 7.06372 29.2571 13.0233H32ZM16 32C24.8366 32 32 26.1693 32 18.9767H29.2571C29.2571 24.9363 23.3218 29.7674 16 29.7674V32ZM0 18.9767C0 26.1693 7.16345 32 16 32V29.7674C8.67829 29.7674 2.74286 24.9363 2.74286 18.9767H0ZM2.74286 13.0233C2.74286 7.06372 8.67829 2.23256 16 2.23256V0C7.16345 0 0 5.83071 0 13.0233H2.74286Z" fill="#03DAC5"/>
</svg>
