<svg width="24" height="24" viewBox="0 0 24 24" fill="none" xmlns="http://www.w3.org/2000/svg">
<path d="M14.6667 24V21.8743C16.8222 21.2343 18.5833 20.0057 19.95 18.1886C21.3167 16.3714 22 14.3086 22 12C22 9.69143 21.3222 7.62286 19.9667 5.79429C18.6111 3.96571 16.8444 2.74286 14.6667 2.12571V0C17.4222 0.64 19.6667 2.07429 21.4 4.30286C23.1333 6.53143 24 9.09714 24 12C24 14.9029 23.1333 17.4686 21.4 19.6971C19.6667 21.9257 17.4222 23.36 14.6667 24ZM0 16.1486V7.92H5.33333L12 1.06286V23.0057L5.33333 16.1486H0ZM14 17.7943V6.24C15.2222 6.62857 16.1944 7.36 16.9167 8.43429C17.6389 9.50857 18 10.7086 18 12.0343C18 13.3371 17.6333 14.5257 16.9 15.6C16.1667 16.6743 15.2 17.4057 14 17.7943ZM10 6.27429L6.23333 9.97714H2V14.0914H6.23333L10 17.8286V6.27429Z" fill="#03DAC5"/>
</svg>
