<svg width="24" height="24" viewBox="0 0 24 24" fill="none" xmlns="http://www.w3.org/2000/svg">
<path d="M22.7212 24L18.7955 20.0743C18.2404 20.4709 17.6406 20.8129 16.9963 21.1004C16.3519 21.3879 15.6828 21.6109 14.9888 21.7695V19.9257C15.4449 19.7869 15.886 19.6332 16.3123 19.4647C16.7385 19.2962 17.14 19.0731 17.5167 18.7955L12.6097 13.8587V20.9071L6.66171 14.9591H1.90335V7.82156H6.54275L0 1.27881L1.27881 0L24 22.6914L22.7212 24ZM21.6506 17.1004L20.3717 15.8216C20.7683 15.1475 21.0607 14.4345 21.2491 13.6826C21.4374 12.9307 21.5316 12.1567 21.5316 11.3606C21.5316 9.31208 20.9368 7.48149 19.7472 5.86882C18.5576 4.25615 16.9715 3.23172 14.9888 2.79554V0.951673C17.4473 1.50682 19.4498 2.75093 20.9963 4.68401C22.5428 6.6171 23.316 8.84263 23.316 11.3606C23.316 12.3717 23.1772 13.3631 22.8996 14.3346C22.6221 15.3061 22.2057 16.228 21.6506 17.1004ZM17.6654 13.1152L14.9888 10.4387V6.57249C15.9207 7.00867 16.6493 7.66295 17.1747 8.53532C17.7001 9.40768 17.9628 10.3594 17.9628 11.3903C17.9628 11.6877 17.938 11.9802 17.8885 12.2677C17.8389 12.5551 17.7646 12.8377 17.6654 13.1152ZM12.6097 8.05948L9.51673 4.96654L12.6097 1.87361V8.05948ZM10.8253 16.5651V12.1041L8.32714 9.60595H3.68773V13.1747H7.43494L10.8253 16.5651Z" fill="#03DAC5"/>
</svg>
