<svg width="24" height="24" viewBox="0 0 24 24" fill="none" xmlns="http://www.w3.org/2000/svg">
<path d="M12 24C8.66667 24 5.83333 22.8333 3.5 20.5C1.16667 18.1667 0 15.3333 0 12C0 8.66667 1.16667 5.83333 3.5 3.5C5.83333 1.16667 8.66667 0 12 0C12.1778 0 12.3667 0.00555556 12.5667 0.0166667C12.7667 0.0277778 13.0222 0.0444444 13.3333 0.0666667C12.5333 0.777778 11.9111 1.65556 11.4667 2.7C11.0222 3.74444 10.8 4.84444 10.8 6C10.8 8 11.5 9.7 12.9 11.1C14.3 12.5 16 13.2 18 13.2C19.1556 13.2 20.2556 12.9944 21.3 12.5833C22.3444 12.1722 23.2222 11.6 23.9333 10.8667C23.9556 11.1333 23.9722 11.35 23.9833 11.5167C23.9944 11.6833 24 11.8444 24 12C24 15.3333 22.8333 18.1667 20.5 20.5C18.1667 22.8333 15.3333 24 12 24ZM12 22C14.4222 22 16.5333 21.25 18.3333 19.75C20.1333 18.25 21.2556 16.4889 21.7 14.4667C21.1444 14.7111 20.5481 14.8944 19.9111 15.0167C19.2741 15.1389 18.637 15.2 18 15.2C15.4514 15.2 13.2809 14.3038 11.4885 12.5115C9.69617 10.7191 8.8 8.54864 8.8 6C8.8 5.46667 8.85556 4.89444 8.96667 4.28333C9.07778 3.67222 9.27778 2.97778 9.56667 2.2C7.38889 2.8 5.58333 4.01667 4.15 5.85C2.71667 7.68333 2 9.73333 2 12C2 14.7778 2.97222 17.1389 4.91667 19.0833C6.86111 21.0278 9.22222 22 12 22Z" fill="#03DAC5"/>
</svg>
