<svg width="26" height="26" viewBox="0 0 26 26" fill="none" xmlns="http://www.w3.org/2000/svg">
<path d="M13 25C19.6274 25 25 19.6274 25 13C25 6.37258 19.6274 1 13 1C6.37258 1 1 6.37258 1 13C1 19.6274 6.37258 25 13 25Z" stroke="#7E7E7E" stroke-width="2" stroke-linecap="round" stroke-linejoin="round"/>
<path d="M15.8001 21.3998V19.1642C15.8301 18.7928 15.7787 18.4194 15.6489 18.0688V18.0688C15.4921 17.6448 15.7143 17.0527 16.1568 16.9597C18.2801 16.5136 20.2002 15.3056 20.2002 11.6785C20.2 11.019 20.042 10.3749 19.746 9.79434C19.3909 9.09826 19.2276 8.28746 19.254 7.50652C19.2629 7.24145 19.2445 6.97585 19.1987 6.71384C19.0966 6.12986 18.5774 5.75265 18.0047 5.90579C17.6402 6.00326 17.1622 6.18481 16.5612 6.51497C16.0653 6.78735 15.4896 6.88143 14.9326 6.78189C13.655 6.55354 12.3453 6.55355 11.0677 6.78189C10.5107 6.88144 9.93507 6.78736 9.43916 6.51497C8.83807 6.18481 8.36011 6.00326 7.9956 5.90578C7.42291 5.75265 6.90374 6.12985 6.80167 6.7138C6.75587 6.97582 6.73741 7.24142 6.74637 7.5065C6.77277 8.28745 6.6094 9.09826 6.25437 9.79434C5.95473 10.3818 5.79653 11.0343 5.80017 11.7018C5.80017 15.31 7.72839 16.5116 9.857 16.9743C10.2983 17.0702 10.5146 17.6585 10.3564 18.0814V18.0814C10.2269 18.4276 10.1736 18.7965 10.2002 19.1642V21.3998" stroke="#7E7E7E" stroke-width="2" stroke-linecap="round" stroke-linejoin="round"/>
<path d="M10.2001 19.8422C7.8001 20.6003 5.8001 19.8423 4.6001 17.5054" stroke="#7E7E7E" stroke-width="2" stroke-linecap="round" stroke-linejoin="round"/>
</svg>
