<svg width="24" height="24" viewBox="0 0 24 24" fill="none" xmlns="http://www.w3.org/2000/svg">
<path d="M11.9936 15.8182C13.0524 15.8182 13.9545 15.4476 14.7 14.7064C15.4455 13.9652 15.8182 13.0652 15.8182 12.0064C15.8182 10.9476 15.4476 10.0455 14.7064 9.3C13.9652 8.55455 13.0652 8.18182 12.0064 8.18182C10.9476 8.18182 10.0455 8.55241 9.3 9.29359C8.55455 10.0348 8.18182 10.9348 8.18182 11.9936C8.18182 13.0524 8.55241 13.9545 9.29359 14.7C10.0348 15.4455 10.9348 15.8182 11.9936 15.8182ZM12 17.4545C10.4909 17.4545 9.20455 16.9227 8.14091 15.8591C7.07727 14.7955 6.54545 13.5091 6.54545 12C6.54545 10.4909 7.07727 9.20455 8.14091 8.14091C9.20455 7.07727 10.4909 6.54545 12 6.54545C13.5091 6.54545 14.7955 7.07727 15.8591 8.14091C16.9227 9.20455 17.4545 10.4909 17.4545 12C17.4545 13.5091 16.9227 14.7955 15.8591 15.8591C14.7955 16.9227 13.5091 17.4545 12 17.4545ZM0.818182 12.8182C0.586364 12.8182 0.392045 12.7393 0.235227 12.5816C0.0784091 12.4238 0 12.2284 0 11.9952C0 11.762 0.0784091 11.5682 0.235227 11.4136C0.392045 11.2591 0.586364 11.1818 0.818182 11.1818H3.54545C3.77727 11.1818 3.97159 11.2607 4.12841 11.4184C4.28523 11.5762 4.36364 11.7716 4.36364 12.0048C4.36364 12.238 4.28523 12.4318 4.12841 12.5864C3.97159 12.7409 3.77727 12.8182 3.54545 12.8182H0.818182ZM20.4545 12.8182C20.2227 12.8182 20.0284 12.7393 19.8716 12.5816C19.7148 12.4238 19.6364 12.2284 19.6364 11.9952C19.6364 11.762 19.7148 11.5682 19.8716 11.4136C20.0284 11.2591 20.2227 11.1818 20.4545 11.1818H23.1818C23.4136 11.1818 23.608 11.2607 23.7648 11.4184C23.9216 11.5762 24 11.7716 24 12.0048C24 12.238 23.9216 12.4318 23.7648 12.5864C23.608 12.7409 23.4136 12.8182 23.1818 12.8182H20.4545ZM11.9952 4.36364C11.762 4.36364 11.5682 4.28523 11.4136 4.12841C11.2591 3.97159 11.1818 3.77727 11.1818 3.54545V0.818182C11.1818 0.586364 11.2607 0.392045 11.4184 0.235227C11.5762 0.0784091 11.7716 0 12.0048 0C12.238 0 12.4318 0.0784091 12.5864 0.235227C12.7409 0.392045 12.8182 0.586364 12.8182 0.818182V3.54545C12.8182 3.77727 12.7393 3.97159 12.5816 4.12841C12.4238 4.28523 12.2284 4.36364 11.9952 4.36364ZM11.9952 24C11.762 24 11.5682 23.9216 11.4136 23.7648C11.2591 23.608 11.1818 23.4136 11.1818 23.1818V20.4545C11.1818 20.2227 11.2607 20.0284 11.4184 19.8716C11.5762 19.7148 11.7716 19.6364 12.0048 19.6364C12.238 19.6364 12.4318 19.7148 12.5864 19.8716C12.7409 20.0284 12.8182 20.2227 12.8182 20.4545V23.1818C12.8182 23.4136 12.7393 23.608 12.5816 23.7648C12.4238 23.9216 12.2284 24 11.9952 24ZM5.45455 6.6L3.9 5.07273C3.73636 4.90909 3.65792 4.7127 3.66466 4.48355C3.67139 4.25439 3.7489 4.05894 3.89719 3.89719C4.05894 3.73543 4.25439 3.65455 4.48355 3.65455C4.7127 3.65455 4.90909 3.73636 5.07273 3.9L6.6 5.45455C6.74545 5.61818 6.81818 5.80909 6.81818 6.02727C6.81818 6.24545 6.74545 6.43182 6.6 6.58636C6.45455 6.74091 6.26818 6.81818 6.04091 6.81818C5.81364 6.81818 5.61818 6.74545 5.45455 6.6ZM18.9273 20.1L17.4 18.5455C17.2545 18.3818 17.1818 18.1875 17.1818 17.9625C17.1818 17.7375 17.2591 17.55 17.4136 17.4C17.5682 17.2364 17.7545 17.1545 17.9727 17.1545C18.1909 17.1545 18.3818 17.2364 18.5455 17.4L20.1 18.9273C20.2636 19.0909 20.3421 19.2873 20.3353 19.5164C20.3286 19.7456 20.2511 19.9411 20.1028 20.1028C19.9411 20.2646 19.7456 20.3455 19.5164 20.3455C19.2873 20.3455 19.0909 20.2636 18.9273 20.1ZM17.4 6.6C17.2364 6.43636 17.1545 6.24545 17.1545 6.02727C17.1545 5.80909 17.2364 5.61818 17.4 5.45455L18.9273 3.9C19.0909 3.73636 19.2873 3.65792 19.5164 3.66466C19.7456 3.67139 19.9411 3.7489 20.1028 3.89719C20.2646 4.05894 20.3455 4.25439 20.3455 4.48355C20.3455 4.7127 20.2636 4.90909 20.1 5.07273L18.5455 6.6C18.4 6.74545 18.2149 6.81818 17.9901 6.81818C17.7653 6.81818 17.5686 6.74545 17.4 6.6ZM3.89719 20.1028C3.73543 19.9411 3.65455 19.7456 3.65455 19.5164C3.65455 19.2873 3.73636 19.0909 3.9 18.9273L5.45455 17.4C5.61455 17.2364 5.80455 17.1545 6.02455 17.1545C6.24455 17.1545 6.43281 17.2364 6.58934 17.4C6.76008 17.5636 6.84545 17.7545 6.84545 17.9727C6.84545 18.1909 6.76364 18.3818 6.6 18.5455L5.07273 20.1C4.90909 20.2636 4.7127 20.3421 4.48355 20.3353C4.25439 20.3286 4.05894 20.2511 3.89719 20.1028Z" fill="#03DAC5"/>
</svg>
