<svg width="102" height="28" viewBox="0 0 102 28" fill="none" xmlns="http://www.w3.org/2000/svg">
<path d="M10.464 7.136L12.064 10.016L3.232 14.816L12.064 19.552L10.464 22.528L0 16.576V13.088L10.464 7.136Z" fill="#03DAC5"/>
<path d="M29.3833 3.392C31.7086 3.392 33.6499 3.66933 35.2072 4.224C36.7646 4.77867 38.0019 5.536 38.9193 6.496C39.8579 7.43467 40.5193 8.52267 40.9033 9.76C41.3086 10.9973 41.5112 12.2987 41.5112 13.664C41.5112 15.0293 41.2873 16.3413 40.8393 17.6C40.4126 18.8587 39.7193 19.9787 38.7593 20.96C37.8206 21.92 36.5726 22.688 35.0153 23.264C33.4793 23.8187 31.6019 24.096 29.3833 24.096H17.5433V3.392H29.3833ZM21.7992 20.448H29.2873C30.8233 20.448 32.0926 20.2667 33.0952 19.904C34.1192 19.52 34.9299 19.008 35.5273 18.368C36.1246 17.728 36.5513 17.0027 36.8073 16.192C37.0633 15.3813 37.1912 14.5387 37.1912 13.664C37.1912 12.7893 37.0633 11.9573 36.8073 11.168C36.5513 10.3787 36.1246 9.67467 35.5273 9.056C34.9299 8.43733 34.1192 7.94667 33.0952 7.584C32.0926 7.22133 30.8233 7.04 29.2873 7.04H21.7992V20.448Z" fill="#F0F0F0"/>
<path d="M69.8282 16.64C69.6362 18.304 69.0496 19.7227 68.0683 20.896C67.0869 22.0693 65.7536 22.9653 64.0683 23.584C62.3829 24.2027 60.3776 24.512 58.0522 24.512C56.1109 24.512 54.3296 24.288 52.7083 23.84C51.1083 23.392 49.7216 22.72 48.5482 21.824C47.3962 20.928 46.5002 19.8187 45.8602 18.496C45.2202 17.152 44.9002 15.584 44.9002 13.792C44.9002 12 45.2202 10.432 45.8602 9.088C46.5002 7.744 47.3962 6.624 48.5482 5.728C49.7216 4.81067 51.1083 4.128 52.7083 3.68C54.3296 3.21067 56.1109 2.976 58.0522 2.976C60.3776 2.976 62.3829 3.296 64.0683 3.936C65.7749 4.576 67.1189 5.49333 68.1003 6.688C69.0816 7.86133 69.6576 9.29067 69.8282 10.976H65.6042C65.3269 10.08 64.8576 9.312 64.1963 8.672C63.5563 8.01067 62.7242 7.50933 61.7002 7.168C60.6762 6.82667 59.4603 6.656 58.0522 6.656C56.3029 6.656 54.7669 6.93333 53.4443 7.488C52.1216 8.02133 51.0976 8.82133 50.3722 9.888C49.6469 10.9333 49.2842 12.2347 49.2842 13.792C49.2842 15.328 49.6469 16.6187 50.3722 17.664C51.0976 18.7093 52.1216 19.5093 53.4443 20.064C54.7669 20.5973 56.3029 20.864 58.0522 20.864C59.4603 20.864 60.6656 20.6933 61.6683 20.352C62.6923 20.0107 63.5243 19.52 64.1643 18.88C64.8256 18.24 65.3056 17.4933 65.6042 16.64H69.8282Z" fill="#F0F0F0"/>
<path d="M82.3968 0L85.7568 1.216L80.8768 14.576L75.9967 27.936L72.6687 26.72L82.3968 0Z" fill="#BB86FC"/>
<path d="M89.931 10.016L91.499 7.136L101.995 13.088V16.576L91.499 22.528L89.931 19.552L98.763 14.816L89.931 10.016Z" fill="#03DAC5"/>
</svg>
