<svg width="102" height="29" viewBox="0 0 102 29" fill="none" xmlns="http://www.w3.org/2000/svg">
<path d="M10.464 8.07197L12.064 10.952L3.232 15.752L12.064 20.488L10.464 23.464L0 17.512V14.024L10.464 8.07197Z" fill="#03DAC5"/>
<path d="M29.3833 4.32797C31.7086 4.32797 33.6499 4.60531 35.2072 5.15997C36.7646 5.71464 38.0019 6.47197 38.9193 7.43197C39.8579 8.37064 40.5193 9.45864 40.9033 10.696C41.3086 11.9333 41.5112 13.2346 41.5112 14.6C41.5112 15.9653 41.2873 17.2773 40.8393 18.536C40.4126 19.7946 39.7193 20.9146 38.7593 21.896C37.8206 22.856 36.5726 23.624 35.0153 24.2C33.4793 24.7546 31.6019 25.032 29.3833 25.032H17.5433V4.32797H29.3833ZM21.7992 21.384H29.2873C30.8233 21.384 32.0926 21.2026 33.0952 20.84C34.1192 20.456 34.9299 19.944 35.5273 19.304C36.1246 18.664 36.5513 17.9386 36.8073 17.128C37.0633 16.3173 37.1912 15.4746 37.1912 14.6C37.1912 13.7253 37.0633 12.8933 36.8073 12.104C36.5513 11.3146 36.1246 10.6106 35.5273 9.99197C34.9299 9.37331 34.1192 8.88264 33.0952 8.51997C32.0926 8.15731 30.8233 7.97597 29.2873 7.97597H21.7992V21.384Z" fill="#222222"/>
<path d="M69.8282 17.576C69.6362 19.24 69.0496 20.6586 68.0683 21.832C67.0869 23.0053 65.7536 23.9013 64.0683 24.52C62.3829 25.1386 60.3776 25.448 58.0522 25.448C56.1109 25.448 54.3296 25.224 52.7083 24.776C51.1083 24.328 49.7216 23.656 48.5482 22.76C47.3962 21.864 46.5002 20.7546 45.8602 19.432C45.2202 18.088 44.9002 16.52 44.9002 14.728C44.9002 12.936 45.2202 11.368 45.8602 10.024C46.5002 8.67997 47.3962 7.55997 48.5482 6.66397C49.7216 5.74664 51.1083 5.06397 52.7083 4.61597C54.3296 4.14664 56.1109 3.91197 58.0522 3.91197C60.3776 3.91197 62.3829 4.23197 64.0683 4.87197C65.7749 5.51197 67.1189 6.42931 68.1003 7.62397C69.0816 8.79731 69.6576 10.2266 69.8282 11.912H65.6042C65.3269 11.016 64.8576 10.248 64.1963 9.60797C63.5563 8.94664 62.7242 8.44531 61.7002 8.10397C60.6762 7.76264 59.4603 7.59197 58.0522 7.59197C56.3029 7.59197 54.7669 7.86931 53.4443 8.42397C52.1216 8.95731 51.0976 9.75731 50.3722 10.824C49.6469 11.8693 49.2842 13.1706 49.2842 14.728C49.2842 16.264 49.6469 17.5546 50.3722 18.6C51.0976 19.6453 52.1216 20.4453 53.4443 21C54.7669 21.5333 56.3029 21.8 58.0522 21.8C59.4603 21.8 60.6656 21.6293 61.6683 21.288C62.6923 20.9466 63.5243 20.456 64.1643 19.816C64.8256 19.176 65.3056 18.4293 65.6042 17.576H69.8282Z" fill="#222222"/>
<path d="M82.3968 0.935974L85.7568 2.15197L80.8768 15.512L75.9967 28.872L72.6687 27.656L82.3968 0.935974Z" fill="#BB86FC"/>
<path d="M89.931 10.952L91.499 8.07197L101.995 14.024V17.512L91.499 23.464L89.931 20.488L98.763 15.752L89.931 10.952Z" fill="#03DAC5"/>
</svg>
