<svg width="27" height="26" viewBox="0 0 27 26" fill="none" xmlns="http://www.w3.org/2000/svg">
<path d="M13.1699 17.8L13.1699 8.19995M13.1699 8.19995L8.96988 12.4M13.1699 8.19995L17.3699 12.4" stroke="#03DAC5" stroke-width="2" stroke-linecap="round" stroke-linejoin="round"/>
<path d="M1.16994 13C1.16994 19.6274 6.54258 25 13.1699 25C19.7973 25 25.1699 19.6274 25.1699 13C25.1699 6.37258 19.7973 1 13.1699 1C6.54258 1 1.16994 6.37258 1.16994 13Z" stroke="#03DAC5" stroke-width="2" stroke-linecap="round" stroke-linejoin="round"/>
<path d="M13.1699 17.8L13.1699 8.19995M13.1699 8.19995L8.96988 12.4M13.1699 8.19995L17.3699 12.4" stroke="#03DAC5" stroke-width="2" stroke-linecap="round" stroke-linejoin="round"/>
<path d="M1.16994 13C1.16994 19.6274 6.54258 25 13.1699 25C19.7973 25 25.1699 19.6274 25.1699 13C25.1699 6.37258 19.7973 1 13.1699 1C6.54258 1 1.16994 6.37258 1.16994 13Z" stroke="#03DAC5" stroke-width="2" stroke-linecap="round" stroke-linejoin="round"/>
</svg>
