<svg width="103" height="29" viewBox="0 0 103 29" fill="none" xmlns="http://www.w3.org/2000/svg">
<path d="M11.416 8.04L13.016 10.92L4.184 15.72L13.016 20.456L11.416 23.432L0.952 17.48V13.992L11.416 8.04ZM90.883 10.92L92.451 8.04L102.947 13.992V17.48L92.451 23.432L90.883 20.456L99.715 15.72L90.883 10.92Z" fill="#03DAC5"/>
<path d="M30.3353 4.296C32.6606 4.296 34.6019 4.57333 36.1593 5.128C37.7166 5.68267 38.9539 6.44 39.8713 7.4C40.8099 8.33867 41.4713 9.42667 41.8553 10.664C42.2606 11.9013 42.4633 13.2027 42.4633 14.568C42.4633 15.9333 42.2393 17.2453 41.7913 18.504C41.3646 19.7627 40.6713 20.8827 39.7113 21.864C38.7726 22.824 37.5246 23.592 35.9673 24.168C34.4313 24.7227 32.5539 25 30.3353 25H18.4953V4.296H30.3353ZM22.7513 21.352H30.2393C31.7753 21.352 33.0446 21.1707 34.0473 20.808C35.0713 20.424 35.8819 19.912 36.4793 19.272C37.0766 18.632 37.5033 17.9067 37.7593 17.096C38.0153 16.2853 38.1433 15.4427 38.1433 14.568C38.1433 13.6933 38.0153 12.8613 37.7593 12.072C37.5033 11.2827 37.0766 10.5787 36.4793 9.96C35.8819 9.34133 35.0713 8.85067 34.0473 8.488C33.0446 8.12533 31.7753 7.944 30.2393 7.944H22.7513V21.352ZM70.7803 17.544C70.5883 19.208 70.0016 20.6267 69.0203 21.8C68.0389 22.9733 66.7056 23.8693 65.0203 24.488C63.3349 25.1067 61.3296 25.416 59.0043 25.416C57.0629 25.416 55.2816 25.192 53.6603 24.744C52.0603 24.296 50.6736 23.624 49.5003 22.728C48.3483 21.832 47.4523 20.7227 46.8123 19.4C46.1723 18.056 45.8523 16.488 45.8523 14.696C45.8523 12.904 46.1723 11.336 46.8123 9.992C47.4523 8.648 48.3483 7.528 49.5003 6.632C50.6736 5.71467 52.0603 5.032 53.6603 4.584C55.2816 4.11467 57.0629 3.88 59.0043 3.88C61.3296 3.88 63.3349 4.2 65.0203 4.84C66.7269 5.48 68.0709 6.39733 69.0523 7.592C70.0336 8.76533 70.6096 10.1947 70.7803 11.88H66.5563C66.2789 10.984 65.8096 10.216 65.1483 9.576C64.5083 8.91467 63.6763 8.41333 62.6523 8.072C61.6283 7.73067 60.4123 7.56 59.0043 7.56C57.2549 7.56 55.7189 7.83733 54.3963 8.392C53.0736 8.92533 52.0496 9.72533 51.3243 10.792C50.5989 11.8373 50.2363 13.1387 50.2363 14.696C50.2363 16.232 50.5989 17.5227 51.3243 18.568C52.0496 19.6133 53.0736 20.4133 54.3963 20.968C55.7189 21.5013 57.2549 21.768 59.0043 21.768C60.4123 21.768 61.6176 21.5973 62.6203 21.256C63.6443 20.9147 64.4763 20.424 65.1163 19.784C65.7776 19.144 66.2576 18.3973 66.5563 17.544H70.7803Z" fill="#F0F0F0"/>
<path d="M83.3488 0.903999L86.7088 2.12L76.9488 28.84L73.6208 27.624L83.3488 0.903999Z" fill="#BB86FC"/>
</svg>
