<svg width="48" height="48" viewBox="0 0 48 48" fill="none" xmlns="http://www.w3.org/2000/svg">
<path d="M13.7458 15.0799L34.2542 4.40223L27.4181 0.820907C25.2129 -0.306545 22.6401 -0.240224 20.5819 0.820907L3.45482 9.70789C1.24962 10.8353 0 12.9576 0 15.0799V32.9201C0 35.175 1.39663 37.1647 3.45482 38.2921L10.291 41.8734V20.4518C10.3645 18.2633 11.5406 16.2073 13.7458 15.0799ZM17.2006 16.8705C14.9954 17.998 13.7458 20.0539 13.7458 22.2425V38.2921C13.7458 38.7564 14.0398 39.1543 14.5544 39.2869C14.8484 39.3532 15.2159 39.3532 15.4364 39.2206L22.2726 35.6393C23.3752 35.0424 23.9633 34.0476 23.9633 32.9865V27.6145C23.9633 25.4922 25.2129 23.4363 27.4181 22.2425L47.9265 11.5649L41.0904 7.98355C38.8851 6.85609 36.3124 6.92241 34.2542 7.98355L17.2006 16.8705ZM47.1914 15.8757C46.8974 15.8094 46.5299 15.8094 46.3093 15.942L39.3997 19.5234C38.2971 20.1202 37.709 21.115 37.709 22.1762V27.5482C37.709 29.6704 36.4594 31.7264 34.2542 32.9201L13.7458 43.5978L20.5819 47.1791C22.7871 48.3065 25.3599 48.2402 27.4181 47.1791L44.5452 38.2921C46.7504 37.1647 48 35.1087 48 32.9201V16.8705C48 16.4063 47.6325 16.0084 47.1914 15.8757Z" fill="#F0F0F0"/>
<path d="M44.7662 3.38793H44.7735L45.9188 5.8916H46.2197L47.365 3.38793H47.3723V5.8916H47.8348V2.84481H47.1447L46.0803 5.14977H46.0656L44.9938 2.84481H44.3037V5.8916H44.7662V3.38793Z" fill="#F0F0F0"/>
<path d="M42.3069 5.8916H42.7694V3.22897H43.8559V2.84481H41.2205V3.22897H42.3069V5.8916Z" fill="#F0F0F0"/>
</svg>
